# xmcd CD database file
#
# Track frame offsets:
#	150
#	13639
#	24715
#	40461
#	50261
#	60903
#	71223
#	92518
#	107123
#	118524
#	130354
#	141851
#	153970
#	173031
#	183979
#	196302
#	208599
#	219926
#
# Disc length: 3071 seconds
#
# Revision: 0
# Processed by: cddbd v1.5.2PL0 Copyright (c) Steve Scherf et al.
# Submitted via: CDex 1.70beta2
#
DISCID=fa0bfd12
DTITLE=Louis Prima - Encore of golden hits
DYEAR=2007
DGENRE=Jazz
TTITLE0=Buona sera
TTITLE1=Oh, Marie
TTITLE2=Jump, jive an' wail
TTITLE3=5 month, 2 weeks, 2 days
TTITLE4=Ooooh-dahdily-dah
TTITLE5=The lip
TTITLE6=Just a gigolo - I ain't got nobody
TTITLE7=I'll be glad when you're dead you rascal you
TTITLE8=Paul Revere
TTITLE9=(Nothing too good) for my baby
TTITLE10=Shepherd boy
TTITLE11=Chop suey, chow mein
TTITLE12=Basin street blues
TTITLE13=Barnacle Bill the sailor
TTITLE14=Boney bones
TTITLE15=Luigi
TTITLE16=Banana split for my baby
TTITLE17=Oh, Marie (slow version)
EXTD=YEAR: 2007
EXTT0=
EXTT1=
EXTT2=
EXTT3=
EXTT4=
EXTT5=
EXTT6=
EXTT7=
EXTT8=
EXTT9=
EXTT10=
EXTT11=
EXTT12=
EXTT13=
EXTT14=
EXTT15=
EXTT16=
EXTT17=
PLAYORDER=
